<?xml version="1.0" standalone="no"?>
<!DOCTYPE svg PUBLIC "-//W3C//DTD SVG 20010904//EN"
 "http://www.w3.org/TR/2001/REC-SVG-20010904/DTD/svg10.dtd">
<svg version="1.0" xmlns="http://www.w3.org/2000/svg"
 width="1024.000000pt" height="1024.000000pt" viewBox="0 0 1024.000000 1024.000000"
 preserveAspectRatio="xMidYMid meet">

<g transform="translate(0.000000,1024.000000) scale(0.100000,-0.100000)"
fill="#000000" stroke="none">
<path d="M4955 9453 c-473 -28 -861 -111 -1260 -268 -115 -45 -383 -168 -449
-205 -17 -9 -85 -48 -151 -85 -664 -376 -1223 -937 -1610 -1620 -222 -391
-403 -893 -490 -1363 -79 -428 -85 -971 -14 -1437 68 -452 193 -841 407 -1270
324 -650 834 -1225 1457 -1642 153 -102 325 -198 536 -302 443 -215 835 -330
1319 -386 585 -68 1243 13 1805 223 1110 415 2026 1287 2480 2363 157 371 267
798 312 1209 23 215 23 735 0 944 -47 413 -155 837 -300 1179 -82 193 -238
501 -326 641 -268 427 -600 799 -1001 1121 -372 299 -847 554 -1330 712 -436
143 -952 212 -1385 186z m655 -117 c463 -63 899 -201 1330 -424 80 -41 157
-83 172 -93 14 -11 28 -19 31 -19 3 0 43 -23 89 -52 419 -259 817 -619 1126
-1020 66 -86 241 -350 314 -475 176 -301 340 -707 431 -1068 97 -381 121 -583
121 -1030 1 -347 -6 -448 -45 -695 -48 -305 -159 -684 -288 -985 -308 -716
-863 -1383 -1512 -1817 -480 -320 -984 -534 -1508 -637 -268 -54 -399 -65
-731 -65 -356 -1 -490 11 -776 69 -639 130 -1289 444 -1824 883 -155 127 -472
448 -596 602 -470 588 -771 1277 -878 2010 -44 303 -55 828 -23 1100 48 405
161 821 328 1213 343 801 946 1492 1689 1934 550 328 1105 516 1703 578 182
19 676 13 847 -9z"/>
<path d="M4860 9259 c-268 -22 -611 -90 -860 -170 -609 -198 -1195 -554 -1641
-999 -666 -665 -1070 -1466 -1199 -2380 -53 -370 -44 -877 21 -1260 43 -254
93 -446 175 -676 275 -775 746 -1421 1376 -1888 634 -470 1288 -733 2022 -812
170 -19 540 -21 716 -5 471 44 932 177 1375 399 153 76 455 255 545 322 19 15
62 46 95 71 399 294 734 649 1007 1069 354 544 573 1204 629 1894 15 187 7
632 -15 811 -62 504 -205 969 -433 1404 -239 456 -486 785 -844 1123 -171 161
-242 220 -414 344 -471 336 -1030 586 -1542 688 -332 66 -702 90 -1013 65z
m485 -258 l60 -6 -3 -220 c-5 -322 -17 -387 -92 -477 -92 -112 -320 -131 -448
-38 -61 44 -110 123 -126 206 -14 69 -40 514 -30 523 3 3 50 7 104 9 l100 4 0
-93 c1 -168 18 -397 32 -425 44 -90 175 -95 229 -8 19 31 21 53 26 284 l6 250
41 -1 c23 -1 68 -4 101 -8z m458 -42 c110 -28 329 -92 450 -131 l98 -32 -7
-31 c-4 -16 -16 -59 -28 -95 -26 -76 -25 -76 -160 -30 l-83 28 -10 -42 c-21
-85 -124 -452 -135 -478 -6 -16 -18 -28 -27 -28 -32 0 -163 44 -168 56 -3 7
25 118 61 246 83 295 83 295 60 301 -11 3 -59 17 -108 32 l-88 26 6 31 c10 52
46 168 52 168 3 0 42 -9 87 -21z m-1562 -156 c138 -62 219 -202 221 -378 0
-130 -45 -237 -128 -300 -183 -140 -423 -100 -543 90 -148 234 -56 519 194
602 59 19 199 12 256 -14z m2849 -332 c-11 -21 -30 -37 -30 -25 0 8 30 44 37
44 2 0 -1 -9 -7 -19z m-419 -150 c38 -38 39 -87 3 -130 -46 -55 -128 -50 -159
8 -23 45 -18 76 16 116 42 47 96 49 140 6z m839 -217 c0 -12 -221 -246 -427
-453 l-104 -104 -72 69 -72 69 26 35 c15 19 138 145 274 279 l246 244 65 -64
c35 -35 64 -69 64 -75z m-4328 78 c83 -41 166 -124 209 -209 32 -63 34 -75 34
-163 0 -79 -4 -103 -23 -142 -66 -133 -225 -213 -372 -186 -128 23 -252 116
-316 239 -25 48 -29 64 -29 144 0 76 4 99 26 145 87 185 293 260 471 172z
m1788 -263 c0 11 3 11 17 0 10 -8 14 -9 10 -2 -10 16 192 15 212 -1 12 -8 13
-8 7 2 -6 10 3 12 38 11 25 -2 46 -8 46 -13 0 -6 4 -5 9 3 7 10 12 8 26 -10
13 -18 16 -19 11 -5 -7 20 -15 20 149 2 387 -42 951 -293 1265 -564 192 -166
300 -280 426 -452 171 -232 283 -426 370 -640 47 -117 84 -225 84 -247 0 -10
-61 -13 -272 -13 -258 1 -272 1 -246 17 26 17 54 61 43 71 -6 6 14 32 25 32 4
0 10 -9 13 -20 4 -16 14 -20 46 -20 l41 0 0 81 0 81 -64 -6 -63 -7 -7 123 c-9
152 -18 203 -43 237 -28 36 -91 78 -132 86 -57 11 -3712 7 -3749 -4 -142 -43
-208 -151 -219 -361 -5 -92 -2 -112 16 -159 28 -69 56 -108 95 -132 31 -19 30
-19 -241 -19 -150 0 -273 1 -273 3 0 14 57 176 95 267 86 210 134 293 330 580
88 129 305 368 420 462 282 230 548 382 855 487 157 53 239 77 310 87 72 10
85 12 85 14 0 4 35 9 77 13 21 2 41 6 44 10 11 11 26 8 19 -3 -3 -5 -1 -10 4
-10 6 0 11 4 11 10 0 5 16 8 35 6 19 -1 40 1 47 5 7 5 16 3 20 -4 6 -9 8 -8 8
2z m2794 -55 c38 -45 55 -72 51 -83 -4 -9 -15 -56 -25 -106 -33 -157 -50 -229
-66 -269 -13 -35 -3 -27 118 88 73 69 137 126 143 126 13 -1 120 -135 120
-152 0 -11 -72 -78 -435 -405 -63 -57 -117 -103 -120 -102 -3 0 -28 29 -57 64
l-51 63 15 43 c17 50 112 403 109 406 -1 1 -31 -25 -66 -58 -171 -158 -228
-209 -232 -209 -3 0 -33 32 -68 71 l-63 70 29 31 c48 51 526 488 534 488 4 0
33 -30 64 -66z m-5285 -232 c76 -71 81 -101 24 -132 -53 -27 -67 -40 -92 -80
-39 -65 -25 -145 36 -201 87 -81 195 -82 269 -2 25 27 34 96 15 107 -15 10
-56 -10 -96 -45 l-37 -33 -39 44 c-21 25 -39 48 -39 52 0 4 39 59 86 122 l87
114 100 -81 c123 -100 138 -123 138 -214 0 -80 -19 -141 -63 -197 -76 -99
-165 -141 -298 -140 -64 1 -86 6 -144 34 -261 124 -307 439 -95 651 33 33 65
59 73 59 8 0 42 -26 75 -58z m5747 -337 c28 -49 28 -73 0 -30 -18 28 -38 75
-31 75 2 0 16 -20 31 -45z m-5876 -442 c9 -8 10 -13 3 -13 -6 0 -18 7 -26 15
-8 8 -18 11 -22 7 -5 -4 -4 -1 0 7 6 11 4 13 -9 8 -10 -4 -15 -3 -11 3 3 6 0
10 -7 10 -7 0 -22 13 -33 28 -18 24 -14 23 35 -12 30 -22 62 -45 70 -53z
m6149 -98 c0 -5 -6 1 -14 15 -8 14 -14 30 -14 35 0 6 6 -1 14 -15 8 -14 14
-29 14 -35z m-6044 35 c3 -6 -1 -7 -9 -4 -18 7 -21 14 -7 14 6 0 13 -4 16 -10z
m101 -70 c10 0 44 -31 44 -41 0 -12 -63 27 -99 61 -43 42 -39 48 8 11 21 -17
42 -31 47 -31z m5112 -30 c-13 -20 -28 -27 -28 -12 0 10 22 32 32 32 5 0 3 -9
-4 -20z m-3168 -75 c0 -13 23 -15 150 -15 127 0 150 2 150 15 0 13 42 15 319
15 274 0 320 -2 325 -15 8 -22 291 -22 300 0 5 13 81 14 625 10 598 -4 622 -5
660 -24 22 -12 42 -25 45 -30 9 -13 -73 -17 -309 -14 -245 3 -3457 3 -3558 0
-41 -1 -66 2 -64 8 7 20 70 48 125 55 32 4 321 8 645 9 516 1 587 -1 587 -14z
m-2390 -7 c0 -22 79 -173 109 -209 39 -47 128 -106 189 -126 26 -9 51 -19 55
-23 4 -4 -19 -17 -52 -29 -138 -50 -233 -153 -292 -316 -17 -46 -19 -48 -26
-25 -3 14 -24 60 -45 102 -60 119 -148 198 -273 244 -48 18 -56 24 -40 29 60
22 168 81 206 113 50 43 113 136 137 204 16 45 32 63 32 36z m6080 -9 c0 -5
14 -38 31 -74 56 -119 176 -224 292 -255 46 -12 64 -30 30 -30 -9 0 -53 -18
-98 -40 -61 -29 -96 -54 -135 -97 -45 -49 -105 -154 -125 -218 -4 -14 -14 0
-40 59 -59 135 -145 223 -270 275 l-70 30 50 21 c28 11 65 28 84 38 86 44 182
161 216 263 9 27 21 47 26 43 5 -3 9 -9 9 -15z m-1149 -154 c-3 -87 9 -119 47
-133 20 -7 31 -18 34 -37 7 -32 -1 -67 -12 -60 -5 3 -11 1 -15 -5 -3 -5 -25
-10 -47 -10 l-41 0 6 139 6 139 -26 7 c-14 3 -27 4 -29 3 -2 -2 1 -58 6 -123
12 -151 12 -177 2 -171 -5 3 -12 67 -15 142 -3 75 -8 138 -9 139 -2 1 -12 5
-23 9 -35 10 -42 -5 -37 -72 4 -51 7 -62 21 -60 12 2 18 19 22 63 4 42 6 19 7
-77 l2 -138 -550 0 -550 0 0 53 c0 28 -3 89 -7 135 -4 59 -3 82 6 82 7 0 11
-20 11 -54 0 -41 4 -55 16 -60 9 -4 19 -4 21 -2 7 7 5 115 -2 126 -3 6 -36 10
-72 10 l-66 0 7 -145 7 -146 -156 2 -155 1 0 54 0 54 90 0 90 0 0 84 0 84 -31
6 c-40 8 -94 8 -154 -1 l-48 -6 7 -139 6 -138 -142 0 c-79 0 -208 -1 -288 -1
-80 -1 -192 -1 -249 0 l-104 1 8 140 7 140 -117 0 -117 0 7 -140 7 -140 -503
0 c-277 0 -527 -3 -555 -6 l-52 -7 -4 99 c-1 55 0 119 3 144 6 44 6 44 8 -15
l1 -60 32 1 33 1 3 66 3 67 -85 0 -84 0 -7 -85 c-4 -47 -5 -112 -3 -145 l4
-61 -80 3 -81 3 -3 47 -3 47 38 6 c21 4 44 7 52 8 33 4 53 52 54 130 l2 76
1924 -2 1924 -2 -2 -70z m-3887 -6 c-1 -46 -19 -109 -28 -97 -1 1 -1 38 2 81
3 52 8 77 16 74 6 -2 11 -26 10 -58z m5451 51 c3 -5 1 -10 -4 -10 -6 0 -11 5
-11 10 0 6 2 10 4 10 3 0 8 -4 11 -10z m-5329 -155 c-1 -116 -4 -145 -15 -145
-11 0 -12 11 -7 53 3 28 6 94 6 145 0 50 4 92 9 92 5 0 8 -65 7 -145z m76 68
c-3 -13 -9 -23 -14 -23 -6 0 -7 7 -4 16 3 9 7 32 7 52 1 37 1 37 8 7 4 -16 5
-40 3 -52z m3757 -22 c1 -57 -10 -46 -20 19 -9 59 1 105 12 55 4 -16 7 -50 8
-74z m1520 34 c0 -5 -6 1 -14 15 -8 14 -14 30 -14 35 0 6 6 -1 14 -15 8 -14
14 -29 14 -35z m-4051 3 c3 -16 -5 -18 -57 -18 -52 0 -61 3 -61 18 0 27 4 28
62 22 40 -4 54 -9 56 -22z m1010 10 c3 -14 -4 -16 -45 -14 -26 1 -58 -1 -70
-6 -19 -6 -23 -4 -23 11 0 24 7 26 78 26 45 0 57 -3 60 -17z m216 -45 c19
-183 19 -180 2 -186 -14 -6 -16 6 -16 96 0 56 -3 112 -6 125 -4 12 -2 22 4 22
5 0 12 -26 16 -57z m-2706 -5 c-3 -37 -7 -44 -27 -46 -20 -3 -23 -1 -16 15 4
10 12 30 17 46 15 41 30 33 26 -15z m5561 -63 c0 -11 -6 -2 -14 20 -8 22 -14
47 -14 55 1 21 27 -51 28 -75z m-3069 62 c0 -25 -25 -37 -77 -37 -46 0 -53 3
-53 20 0 16 8 20 58 23 31 2 60 4 65 5 4 1 7 -4 7 -11z m-1010 -14 c10 -9 -28
-23 -67 -23 -42 0 -60 11 -48 30 6 10 103 4 115 -7z m20 -109 l0 -54 -75 0
-75 0 0 58 0 57 75 -3 75 -4 0 -54z m4094 -38 c-4 -13 -3 -16 7 -11 9 6 11 2
6 -16 -4 -13 -7 -31 -8 -39 -1 -8 -5 1 -9 20 -5 19 -6 46 -4 60 5 20 3 22 -5
10 -12 -17 -14 -6 -4 30 l7 25 8 -30 c4 -17 5 -38 2 -49z m-5304 -71 c0 -7 -3
-27 -7 -45 l-6 -33 -125 7 c-129 7 -134 9 -166 59 l-18 27 161 -1 c122 -1 161
-4 161 -14z m120 -1 c0 -2 -13 -4 -30 -4 -16 0 -30 4 -30 8 0 5 14 7 30 4 17
-2 30 -6 30 -8z m2465 7 c54 -5 -225 -9 -695 -11 -883 -3 -1055 -6 -1070 -15
-5 -3 -10 0 -10 8 0 12 -53 14 -342 12 -189 -2 -311 0 -273 4 101 9 2283 11
2390 2z m731 -4 c4 -4 -109 -7 -252 -6 -142 1 -248 4 -234 8 33 9 477 8 486
-2z m385 3 c22 0 25 -3 21 -29 -5 -36 -15 -39 -154 -47 l-108 -7 0 48 0 48
108 -6 c59 -4 119 -6 133 -7z m-914 -6 c-3 -3 -12 -4 -19 -1 -8 3 -5 6 6 6 11
1 17 -2 13 -5z m591 -1 c-10 -2 -26 -2 -35 0 -10 3 -2 5 17 5 19 0 27 -2 18
-5z m1945 -33 c3 -11 1 -18 -4 -14 -5 3 -9 12 -9 20 0 20 7 17 13 -6z m-4606
-11 c18 -3 27 -63 14 -88 -18 -32 -31 -25 -31 17 0 45 -20 68 -65 75 -16 3 -7
3 20 1 28 -2 56 -4 62 -5z m158 -8 c-8 -14 -25 -14 -25 0 0 5 5 7 10 4 6 -3
10 -1 10 6 0 7 3 10 6 6 3 -3 3 -10 -1 -16z m1963 10 c-53 -8 -77 -30 -78 -73
0 -34 -17 -37 -26 -4 -7 30 -2 57 11 58 6 0 19 7 30 14 11 8 40 13 65 13 l45
-2 -47 -6z m-2748 -27 c-6 -14 -10 -36 -10 -50 0 -15 -6 -24 -15 -24 -11 0
-15 12 -15 46 0 27 4 43 10 39 6 -3 10 -1 10 4 0 6 7 11 15 11 11 0 12 -5 5
-26z m75 19 c-11 -3 -26 -10 -33 -15 -9 -8 -11 -7 -6 6 4 10 16 16 33 15 20
-1 22 -2 6 -6z m288 0 c-7 -2 -19 -2 -25 0 -7 3 -2 5 12 5 14 0 19 -2 13 -5z
m2034 1 c-3 -3 -12 -4 -19 -1 -8 3 -5 6 6 6 11 1 17 -2 13 -5z m907 -46 c-1
-18 -3 -36 -3 -40 -2 -20 -16 -5 -17 17 -1 14 -5 37 -8 51 -6 22 -5 24 13 15
14 -8 18 -19 15 -43z m-80 34 c2 -4 -11 -6 -30 -4 -19 2 -34 6 -34 8 0 8 59 4
64 -4z m-3121 -47 c-5 -31 -8 -35 -13 -20 -4 11 -3 30 3 43 14 31 18 23 10
-23z m5134 23 c-3 -8 -6 -5 -6 6 -1 11 2 17 5 13 3 -3 4 -12 1 -19z m-2376
-33 c-9 -30 -9 -30 -10 10 -1 25 2 36 9 29 6 -6 6 -21 1 -39z m-72 21 c9 -11
10 -20 1 -36 -15 -28 -73 -25 -78 4 -4 19 -3 19 13 2 22 -22 49 -17 53 11 3
17 -3 22 -25 26 l-28 4 26 2 c15 0 32 -5 38 -13z m437 -32 c-8 -22 -50 -13
-54 11 -3 16 -1 18 9 8 20 -20 39 -15 40 10 1 17 2 18 6 4 3 -10 2 -25 -1 -33z
m-3018 8 c2 -12 -1 -22 -7 -22 -6 0 -11 9 -11 19 0 11 -6 22 -12 25 -7 3 -4 5
7 3 12 -1 21 -11 23 -25z m102 8 c16 0 30 5 32 11 2 6 9 0 16 -15 l12 -26 -55
0 c-56 0 -61 4 -48 36 4 11 8 13 11 6 2 -7 16 -12 32 -12z m240 10 c0 -5 -2
-10 -4 -10 -3 0 -8 5 -11 10 -3 6 -1 10 4 10 6 0 11 -4 11 -10z m2403 3 c-7
-2 -13 -13 -13 -24 0 -10 -4 -19 -10 -19 -5 0 -10 11 -10 25 0 19 5 25 23 24
12 0 16 -3 10 -6z m71 -9 c8 -22 6 -24 -38 -31 -21 -3 -36 -2 -36 4 0 6 11 9
25 8 26 -3 36 19 13 28 -7 3 -3 6 8 6 12 1 25 -6 28 -15z m-2954 -19 c10 -13
9 -15 -9 -15 -12 0 -21 6 -21 15 0 8 4 15 9 15 5 0 14 -7 21 -15z m108 3 c-6
-18 -28 -21 -28 -4 0 9 7 16 16 16 9 0 14 -5 12 -12z m326 -21 c7 -6 6 -7 -4
-4 -8 2 -16 12 -17 23 -2 13 -1 15 4 4 3 -8 11 -19 17 -23z m2085 16 c9 -17
-39 -18 -937 -18 -894 0 -947 1 -950 18 -3 16 47 17 937 17 885 0 941 -1 950
-17z m541 -15 c0 -5 -4 -8 -10 -8 -5 0 -10 10 -10 23 0 18 2 19 10 7 5 -8 10
-18 10 -22z m-2910 -63 c0 -7 -33 -11 -82 -11 l-83 -1 -3 -49 c-5 -73 -22 -80
-19 -8 l2 59 -35 -1 c-19 -1 -63 -2 -97 -3 l-63 -1 0 -50 0 -49 83 -4 c45 -1
0 -4 -100 -5 -132 -1 -183 1 -183 9 0 9 26 10 95 5 l95 -6 0 50 0 50 -95 0
c-104 0 -102 1 -96 -67 1 -12 -4 -25 -10 -29 -9 -5 -10 6 -5 44 l7 52 -90 0
c-49 0 -92 -3 -94 -7 -2 -5 -2 -26 0 -48 l5 -40 68 2 c39 2 72 -2 75 -8 5 -6
-55 -9 -177 -9 l-184 2 4 29 c2 16 1 40 -2 54 -6 23 -11 25 -61 25 -37 0 -55
4 -55 13 0 9 117 12 550 12 372 0 550 -3 550 -10z m3956 2 c3 -2 2 -11 -2 -20
-5 -14 -9 -14 -27 -3 -16 8 -47 11 -107 7 l-85 -6 -6 -50 -6 -50 -1 53 -2 52
-95 0 -95 0 0 -47 0 -48 72 2 c39 1 79 -2 87 -7 10 -6 -53 -10 -172 -10 -112
0 -186 4 -182 9 3 5 38 7 79 4 98 -8 102 -5 98 50 l-4 46 -90 3 c-49 2 -92 -1
-95 -5 -3 -5 -12 -5 -22 -2 -28 12 -185 5 -193 -8 -5 -7 -7 -28 -6 -47 l3 -35
102 0 c56 0 98 -4 94 -8 -4 -4 -52 -6 -107 -5 l-99 3 -3 58 c-2 48 -6 58 -18
53 -9 -3 -54 -6 -100 -6 l-84 0 0 -47 0 -48 86 0 c47 1 88 -3 90 -7 3 -4 -40
-8 -96 -8 -99 0 -101 1 -100 23 1 12 2 37 1 55 l-1 32 -95 0 -95 0 0 -45 0
-45 79 0 c44 0 83 -4 86 -10 4 -6 -62 -9 -179 -8 -105 1 -183 5 -180 10 3 5
36 9 72 8 120 -3 112 -6 112 45 0 36 -3 45 -17 45 -10 1 -55 2 -101 3 l-82 2
0 -42 c0 -24 -4 -43 -10 -43 -5 0 -10 18 -10 40 l0 40 -44 0 c-50 0 -58 -10
-49 -64 5 -33 8 -35 52 -39 27 -2 15 -4 -31 -4 -71 -1 -77 1 -68 17 5 9 7 34
3 54 l-6 36 -93 0 c-52 0 -97 1 -101 3 -5 1 -9 -24 -11 -55 -4 -74 -22 -76
-22 -3 l0 55 -55 0 -55 0 0 -49 0 -50 53 -4 c45 -3 43 -4 -15 -4 l-68 0 0 54
0 53 -100 0 c-110 0 -106 2 -101 -67 1 -11 -3 -24 -8 -28 -7 -4 -11 11 -11 44
l0 51 -100 0 -100 0 0 -45 0 -45 89 0 c50 0 92 -4 95 -9 3 -5 -39 -8 -94 -8
l-100 1 0 53 0 53 -95 0 -95 0 0 -45 0 -45 93 -1 c87 -1 89 -2 37 -9 -30 -5
-147 -8 -260 -7 l-205 1 -1 48 c0 26 -2 50 -5 52 -5 5 -131 9 -231 7 l-68 -1
0 -45 0 -45 50 0 c28 0 50 -5 50 -10 0 -7 -58 -10 -170 -10 l-170 2 0 58 0 58
-32 -3 c-18 -2 -61 -4 -95 -4 l-63 -1 0 -47 0 -48 65 3 c43 3 65 0 65 -7 0 -8
-25 -11 -75 -9 l-75 2 0 53 0 53 -95 0 c-52 0 -95 -3 -96 -7 0 -5 -2 -25 -5
-45 l-5 -38 88 -1 c66 -1 81 -3 59 -9 -45 -14 -342 -12 -329 1 7 7 42 10 92 8
l81 -4 0 35 c0 20 5 47 12 61 l11 24 1955 -2 c1075 -1 1956 -4 1958 -6z m1101
-4 c-4 -3 -1 -13 6 -21 7 -9 11 -42 10 -85 -1 -46 2 -66 8 -56 5 8 9 9 9 4 0
-6 -6 -17 -12 -24 -10 -11 -10 -13 0 -7 7 5 12 1 12 -9 0 -9 -6 -15 -12 -13
-8 3 -17 42 -24 104 -10 95 -10 114 3 114 4 0 3 -3 0 -7z m-7270 -105 c-2 -13
-4 -5 -4 17 -1 22 1 32 4 23 2 -10 2 -28 0 -40z m3173 -9 c0 -10 -132 -11
-157 -1 -33 11 -6 17 72 14 47 -2 85 -8 85 -13z m-540 1 c0 -5 -7 -10 -15 -10
-8 0 -15 5 -15 10 0 6 7 10 15 10 8 0 15 -4 15 -10z m1468 1 c9 -5 -18 -9 -67
-10 -50 -1 -81 2 -81 9 0 12 129 14 148 1z m332 -1 c18 -6 6 -8 -43 -9 -43 -1
-66 3 -62 9 7 12 69 12 105 0z m1689 -6 c2 -2 -36 -3 -85 -3 -55 1 -78 4 -59
8 29 6 136 3 144 -5z m-4996 -1 c-7 -2 -19 -2 -25 0 -7 3 -2 5 12 5 14 0 19
-2 13 -5z m50 0 c-7 -2 -19 -2 -25 0 -7 3 -2 5 12 5 14 0 19 -2 13 -5z m-1189
-58 c-4 -8 -1 -15 5 -15 6 0 11 -4 11 -10 0 -5 -7 -10 -15 -10 -15 0 -21 31
-8 43 10 11 13 8 7 -8z m1483 9 c-3 -3 -12 -4 -19 -1 -8 3 -5 6 6 6 11 1 17
-2 13 -5z m790 0 c-3 -3 -12 -4 -19 -1 -8 3 -5 6 6 6 11 1 17 -2 13 -5z m2830
0 c-3 -3 -12 -4 -19 -1 -8 3 -5 6 6 6 11 1 17 -2 13 -5z m660 0 c-3 -3 -12 -4
-19 -1 -8 3 -5 6 6 6 11 1 17 -2 13 -5z m-4637 -24 c0 -5 -4 -10 -10 -10 -5 0
-10 5 -10 10 0 6 5 10 10 10 6 0 10 -4 10 -10z m6210 -920 l0 -870 -25 0 -25
0 0 845 0 845 -662 2 c-1351 3 -6603 -3 -6608 -8 -3 -3 -5 -383 -5 -845 l0
-840 -23 3 c-12 2 -22 6 -22 11 0 4 0 394 0 867 l0 860 3685 0 3685 0 0 -870z
m-4755 561 c96 -24 139 -41 227 -92 170 -99 303 -280 343 -464 63 -295 -33
-569 -259 -739 -154 -116 -306 -166 -499 -166 -598 0 -956 610 -656 1117 19
31 72 96 119 143 74 75 99 93 190 138 59 28 136 58 175 66 103 21 263 20 360
-3z m1922 -10 c88 -25 243 -96 243 -110 0 -18 -122 -396 -130 -405 -5 -5 -27
7 -50 27 -57 49 -153 93 -232 108 -162 30 -324 -56 -396 -209 -37 -79 -39
-203 -3 -276 49 -100 132 -165 245 -193 58 -14 77 -14 134 -4 80 15 152 48
231 106 l60 44 30 -92 c44 -136 91 -302 91 -325 0 -21 -16 -28 -155 -74 -155
-50 -329 -63 -477 -34 -280 54 -522 273 -588 532 -25 98 -28 253 -5 351 22 95
94 236 157 309 122 140 268 225 453 264 73 16 312 4 392 -19z m-3856 -11 c24
-13 24 -25 -1 -60 -19 -27 -20 -42 -18 -230 l3 -202 100 128 c55 71 144 184
198 252 l99 122 284 0 c156 0 284 -3 284 -6 0 -4 -28 -39 -63 -78 -35 -39
-148 -172 -252 -294 -105 -123 -205 -242 -224 -264 l-34 -39 77 -112 c43 -62
122 -175 176 -252 145 -205 260 -373 260 -379 0 -4 -113 -5 -252 -4 l-252 3
-61 90 c-34 50 -105 154 -158 233 l-96 142 -45 -56 -46 -56 0 -132 c0 -109 3
-138 19 -168 13 -26 15 -40 8 -47 -15 -15 -453 -15 -462 -1 -4 6 1 29 9 53 14
37 16 115 14 662 -3 595 -4 621 -22 649 -19 28 -19 29 -1 42 23 17 424 20 456
4z m4752 -1 c12 -7 23 -13 25 -14 2 -2 -6 -18 -17 -36 -19 -31 -21 -50 -21
-246 l0 -213 200 0 200 0 0 208 c0 192 -2 210 -21 247 -33 62 -23 65 221 65
168 0 210 -3 227 -15 l22 -15 -20 -34 c-19 -33 -19 -51 -17 -667 3 -544 5
-637 18 -657 13 -20 13 -24 0 -32 -8 -5 -108 -10 -221 -10 -234 0 -251 4 -225
55 13 24 16 70 16 242 0 188 -2 212 -16 215 -10 2 -100 2 -200 0 l-184 -3 0
-222 c0 -183 3 -226 15 -244 14 -20 14 -23 -4 -33 -21 -11 -427 -15 -455 -4
-20 8 -21 38 -1 54 14 11 15 90 13 655 -3 617 -4 644 -22 664 -21 23 -21 23 9
39 28 16 429 16 458 1z m1701 -4 c18 -13 18 -15 -3 -48 -21 -34 -21 -40 -21
-656 0 -534 2 -627 15 -658 12 -29 13 -38 3 -45 -7 -4 -115 -8 -239 -8 -252 0
-263 3 -229 55 19 29 20 53 20 656 0 611 0 627 -20 652 -47 60 -24 66 235 66
174 0 224 -3 239 -14z m-4320 -1522 l19 -26 -33 6 c-18 4 -44 7 -59 8 -25 0
-25 1 -5 9 12 5 25 13 29 19 10 18 29 12 49 -16z m-747 -150 c-6 -5 -96 50
-97 60 0 4 6 7 13 7 7 0 28 11 47 24 l35 24 3 -55 c2 -31 1 -57 -1 -60z m713
70 c0 -19 -3 -24 -10 -17 -6 6 -8 18 -4 27 9 24 14 21 14 -10z m934 -49 c42
-41 22 -104 -34 -104 -34 0 -50 17 -50 54 0 55 50 85 84 50z m901 -14 c-19 -8
-19 -9 2 -9 41 -2 36 -21 -6 -21 -55 0 -85 -37 -78 -98 3 -32 2 -41 -6 -33
-10 10 -13 58 -5 90 1 8 14 25 28 38 l25 24 -35 -17 c-19 -9 -38 -22 -42 -28
-6 -8 -8 -8 -8 0 0 28 64 63 115 63 26 0 27 -2 10 -9z m65 -14 c0 -2 -9 -2
-20 1 -11 3 -20 9 -20 15 0 5 9 4 20 -2 11 -6 20 -12 20 -14z m-1857 -5 c43
-10 59 -21 39 -28 -6 -3 -10 -8 -7 -12 2 -5 -7 -6 -21 -3 -16 3 -30 -1 -35 -9
-6 -9 -9 -10 -9 -2 0 8 -9 9 -32 2 -61 -17 -102 -42 -153 -93 -29 -28 -69 -59
-89 -69 l-37 -17 7 22 c32 106 104 178 204 204 55 15 83 16 133 5z m2577 1 c0
-5 -17 -16 -37 -26 -41 -19 -39 -13 4 15 34 21 33 21 33 11z m-693 -58 c10 4
10 1 1 -14 -11 -18 -13 -17 -25 12 -16 37 -16 52 -1 20 6 -13 17 -21 25 -18z
m-226 -7 c-6 -6 -11 -26 -11 -43 0 -18 -4 -36 -10 -39 -6 -3 -10 4 -10 18 0
36 21 88 32 81 6 -4 6 -10 -1 -17z m-2411 3 c0 -5 -12 -10 -27 -10 -22 0 -25
2 -13 10 20 13 40 13 40 0z m2569 -15 c3 -16 1 -17 -12 -7 -12 10 -16 10 -21
-4 -10 -25 -7 -32 12 -37 14 -4 13 -5 -3 -6 -40 -2 -51 30 -22 67 14 18 41 11
46 -13z m638 0 c0 -8 -4 -12 -9 -9 -5 3 -6 10 -3 15 9 13 12 11 12 -6z m-3319
-7 c-3 -8 -28 -14 -67 -16 -59 -3 -63 -4 -91 -44 -16 -22 -35 -56 -42 -74
l-12 -34 -11 33 c-8 25 -16 32 -35 32 -20 0 -26 -6 -28 -27 -3 -26 -7 -28 -48
-28 l-44 0 0 85 0 85 191 0 c148 0 190 -3 187 -12z m536 -15 c-51 -77 -54 -91
-54 -235 0 -81 -4 -138 -10 -138 -5 0 -12 17 -15 38 -20 131 -72 249 -131 301
-32 29 -42 32 -85 29 -41 -2 -49 0 -49 15 0 16 15 17 181 17 l181 0 -18 -27z
m1135 1 c37 -30 40 -51 9 -56 -13 -2 -27 -13 -33 -25 -5 -13 -28 -29 -55 -39
-94 -35 -157 -73 -206 -125 -90 -97 -124 -194 -124 -362 0 -49 -5 -107 -12
-129 -9 -31 -9 -44 0 -59 11 -17 9 -19 -21 -19 -18 0 -38 -5 -45 -12 -17 -17
-15 -69 4 -96 12 -18 15 -49 13 -155 -2 -206 -10 -297 -25 -297 -22 0 -26 72
-22 425 3 330 4 341 25 370 37 51 38 70 3 95 l-30 21 0 124 c0 100 3 124 15
129 24 9 18 35 -33 139 l-48 97 277 0 277 0 31 -26z m780 -1 c-6 -16 -31 -70
-57 -120 l-47 -93 -77 -1 c-43 -1 -82 -3 -88 -4 -5 -1 -22 -3 -36 -4 l-26 -1
21 -34 c12 -18 21 -50 21 -71 0 -29 4 -38 21 -42 20 -6 21 -10 17 -224 -2
-138 -7 -219 -13 -219 -6 0 -9 40 -7 109 5 142 -11 270 -41 335 -51 109 -143
193 -258 233 -50 18 -79 34 -85 48 -5 11 -19 24 -31 30 -31 13 -29 34 5 62 27
22 30 22 359 23 l333 0 -11 -27z m757 9 c-4 -12 3 -27 19 -42 14 -13 25 -26
25 -29 0 -3 -43 -4 -95 -3 -82 3 -95 2 -95 -12 0 -9 4 -16 8 -16 14 0 32 -48
32 -85 l0 -35 -74 0 -74 0 -50 93 c-28 51 -54 105 -57 120 l-7 27 187 0 c176
0 186 -1 181 -18z m625 1 c7 -75 6 -204 -1 -208 -4 -3 -4 -22 1 -42 10 -44 12
-115 3 -137 -3 -9 -15 -16 -26 -16 -19 0 -20 6 -16 148 2 81 8 156 13 166 8
18 5 19 -64 12 l-73 -6 20 27 c11 16 23 38 26 51 6 19 14 22 62 22 44 0 54 -3
55 -17z m-4261 -12 c0 -12 -9 -20 -27 -24 -16 -3 -306 -5 -646 -4 -536 2 -619
4 -627 17 -5 8 -10 18 -10 22 0 4 295 7 655 8 636 0 655 0 655 -19z m5597 9
l28 -8 -35 -15 c-30 -13 -120 -15 -648 -13 l-612 1 1 -141 c1 -86 -3 -149 -10
-160 -8 -14 -10 28 -11 162 l0 181 630 1 c346 0 642 -3 657 -8z m-1887 -10 c0
-5 -4 -10 -10 -10 -5 0 -10 5 -10 10 0 6 5 10 10 10 6 0 10 -4 10 -10z m-564
-38 c-15 -15 -15 -15 -4 10 7 15 15 23 17 17 2 -6 -4 -18 -13 -27z m944 34 c0
-2 -7 -7 -16 -10 -8 -3 -12 -2 -9 4 6 10 25 14 25 6z m-4093 -123 c-2 -21 -4
-6 -4 32 0 39 2 55 4 38 2 -18 2 -50 0 -70z m727 66 c29 -22 57 -71 80 -140
19 -54 13 -62 -10 -14 -13 27 -19 33 -26 23 -7 -9 -8 -7 -5 8 2 12 1 28 -4 35
-7 11 -9 10 -9 -3 0 -10 -5 -18 -11 -18 -5 0 -8 3 -6 8 3 4 -4 16 -14 26 -13
13 -19 15 -19 6 0 -9 -9 -5 -26 11 -24 22 -34 24 -154 26 -161 3 -179 -4 -220
-91 -17 -35 -30 -69 -30 -77 0 -8 -10 -19 -22 -24 -13 -6 -26 -24 -30 -42 -5
-18 -13 -33 -18 -33 -24 0 24 154 81 261 l32 59 192 0 c180 0 194 -1 219 -21z
m-977 -15 c-3 -3 -12 -4 -19 -1 -8 3 -5 6 6 6 11 1 17 -2 13 -5z m-989 -29
c-3 -3 -9 2 -12 12 -6 14 -5 15 5 6 7 -7 10 -15 7 -18z m330 0 c-3 -3 -9 2
-12 12 -6 14 -5 15 5 6 7 -7 10 -15 7 -18z m5102 0 c0 -10 -17 -16 -57 -21
l-58 -6 -2 -41 c-1 -23 4 -45 10 -49 9 -6 8 -8 -1 -8 -21 0 -14 -161 7 -178
13 -10 14 -12 1 -10 -27 5 -30 21 -30 150 0 75 -4 129 -10 133 -21 13 2 25 48
26 26 0 56 4 67 9 11 5 21 9 23 9 1 1 2 -6 2 -14z m-965 -2 c-119 -7 -353 -7
-348 0 2 4 93 6 201 5 108 -1 175 -3 147 -5z m435 -3 c0 -5 -4 -10 -10 -10 -5
0 -10 -12 -9 -27 l1 -28 7 25 c7 23 8 22 12 -12 3 -21 1 -38 -4 -38 -5 0 -4
-6 2 -14 8 -10 9 -21 3 -33 -12 -24 -13 -81 -1 -88 9 -6 2 -435 -7 -444 -2 -2
-4 27 -4 65 0 48 -3 64 -10 54 -5 -8 -10 -10 -10 -4 0 5 6 16 13 23 9 11 9 12
0 7 -10 -6 -11 -1 -3 19 7 17 7 24 0 20 -6 -4 -10 7 -10 26 0 22 -3 30 -10 23
-7 -7 -7 -50 -2 -125 5 -62 6 -148 3 -189 -5 -63 -7 -45 -14 109 -12 297 -10
381 8 381 13 0 15 12 13 68 -3 61 -5 67 -25 70 -21 3 -23 9 -23 62 0 37 -5 60
-12 63 -7 3 11 6 40 6 28 1 52 -3 52 -9z m-3971 -97 c105 -203 246 -387 447
-584 339 -329 771 -569 1265 -702 458 -124 961 -133 1419 -25 450 105 884 320
1215 601 263 223 467 470 582 707 l48 98 127 1 128 2 -17 -38 c-124 -270 -309
-531 -542 -763 -178 -177 -273 -256 -451 -374 -310 -204 -573 -326 -905 -419
-138 -38 -274 -67 -332 -69 -29 -2 -53 -6 -53 -10 0 -5 -7 -8 -16 -8 -9 0 -12
5 -8 13 5 9 4 9 -6 0 -7 -6 -19 -9 -28 -6 -9 4 -13 2 -9 -4 8 -13 -65 -21
-280 -29 -140 -6 -175 -5 -190 7 -11 9 -14 10 -9 2 5 -10 -8 -13 -54 -13 -34
0 -59 3 -57 8 3 4 -43 8 -101 8 -59 1 -127 7 -152 14 -25 7 -56 13 -70 15 -56
5 -126 18 -135 23 -5 4 -21 8 -35 10 -13 2 -31 9 -39 15 -11 9 -13 9 -8 0 5
-7 0 -9 -13 -6 -11 3 -18 9 -15 13 3 5 -4 6 -14 3 -42 -11 -395 116 -608 218
-211 101 -495 285 -667 433 -99 85 -230 218 -324 331 -134 160 -302 421 -366
568 l-26 57 125 0 124 0 50 -97z m4051 88 c0 -6 -4 -13 -10 -16 -5 -3 -10 -2
-10 4 0 5 -8 12 -17 14 -11 3 -7 5 10 6 15 0 27 -3 27 -8z m-3370 -5 c0 -3 -4
-8 -10 -11 -5 -3 -10 -1 -10 4 0 6 5 11 10 11 6 0 10 -2 10 -4z m153 -3 c-7
-2 -21 -2 -30 0 -10 3 -4 5 12 5 17 0 24 -2 18 -5z m3503 -40 c-11 -11 -17 4
-9 23 7 18 8 18 11 1 2 -10 1 -21 -2 -24z m387 22 c-3 -9 -8 -14 -10 -11 -3 3
-2 9 2 15 9 16 15 13 8 -4z m-5283 -20 c0 -18 -27 -27 -34 -10 -3 9 0 12 10 8
10 -4 12 0 7 13 -4 12 -3 15 5 10 7 -4 12 -13 12 -21z m3060 16 c0 -4 11 -6
25 -3 19 3 24 1 20 -10 -4 -10 4 -19 24 -28 17 -7 31 -17 31 -22 0 -6 -6 -5
-15 2 -8 6 -19 9 -24 6 -5 -4 -12 -2 -16 4 -10 17 -25 11 -19 -7 2 -10 -1 -8
-7 5 -13 25 -32 31 -23 7 5 -11 2 -13 -12 -8 -11 4 -15 3 -10 -5 4 -7 -3 -14
-18 -18 l-25 -6 19 -34 c12 -20 15 -36 9 -39 -5 -4 -9 -3 -8 2 4 20 -2 27 -12
13 -9 -13 -10 -12 -5 3 6 17 -12 57 -25 57 -4 0 -5 -9 -2 -20 4 -14 0 -20 -11
-20 -8 0 -14 6 -12 13 1 6 1 9 -1 5 -2 -4 -10 -6 -16 -4 -7 1 -9 1 -4 -1 16
-10 6 -21 -15 -15 -14 3 -19 2 -14 -7 4 -6 1 -18 -8 -26 -9 -9 -17 -11 -21 -5
-3 5 -1 10 4 10 6 0 11 5 11 11 0 8 -5 8 -15 -1 -8 -7 -15 -19 -15 -26 0 -8
-3 -13 -7 -12 -16 6 -85 -57 -103 -92 -10 -20 -26 -43 -36 -51 -16 -13 -17
-11 -10 25 24 129 106 239 198 266 26 8 45 17 42 21 -2 4 10 10 28 12 63 7 98
7 98 -2z m1112 -6 c4 -5 8 -14 8 -20 0 -5 -4 -5 -8 1 -4 8 -22 9 -52 5 -25 -4
-122 -6 -217 -4 -163 2 -172 1 -178 -17 -4 -11 -11 -20 -16 -20 -11 0 -11 12
0 43 l10 25 223 -1 c135 -1 226 -6 230 -12z m425 -297 c-1 -57 -3 -11 -3 102
0 113 2 159 3 103 2 -57 2 -149 0 -205z m83 262 c0 -39 -1 -40 -36 -40 -23 0
-33 4 -28 11 3 6 17 8 30 5 22 -6 24 -3 24 29 0 19 2 35 5 35 3 0 5 -18 5 -40z
m-3463 -103 c-2 -23 -3 -1 -3 48 0 50 1 68 3 42 2 -26 2 -67 0 -90z m109 98
c-32 -30 -34 -70 -3 -104 l22 -26 -27 24 c-38 33 -38 82 -2 110 36 29 43 26
10 -4z m71 19 c-3 -3 -12 -4 -19 -1 -8 3 -5 6 6 6 11 1 17 -2 13 -5z m1043 -8
c0 -13 -47 -15 -315 -16 -276 0 -315 1 -315 15 0 13 39 15 315 15 268 0 315
-2 315 -14z m2314 -97 c5 -108 12 -143 27 -133 5 3 10 -5 11 -18 1 -13 5 13 9
57 5 58 5 48 2 -35 -3 -63 -6 -134 -7 -157 0 -24 -4 -43 -8 -43 -4 0 -3 -11 2
-25 7 -20 6 -27 -4 -31 -18 -7 -30 -36 -17 -43 10 -7 -4 -100 -17 -113 -4 -4
-8 141 -8 322 -1 182 1 329 2 327 2 -2 6 -50 8 -108z m-3674 93 c0 -20 -24
-27 -89 -24 -53 3 -71 7 -71 18 0 11 18 14 80 14 44 0 80 -4 80 -8z m369 -61
c-1 -23 -2 -22 -11 9 -5 19 -13 40 -16 45 -4 6 1 2 11 -8 9 -11 17 -31 16 -46z
m-1442 52 c-9 -9 13 -34 24 -27 5 3 6 -1 3 -9 -3 -8 2 -17 11 -21 9 -3 13 -10
10 -16 -3 -5 -1 -10 5 -10 6 0 62 -78 124 -172 62 -95 155 -229 206 -298 99
-133 317 -362 465 -489 634 -545 1543 -849 2370 -792 906 63 1754 483 2323
1150 133 156 189 231 326 439 59 89 112 162 119 162 8 0 9 -3 1 -8 -6 -4 -13
-14 -16 -23 -5 -12 0 -15 23 -14 34 2 52 15 21 15 -15 0 -20 4 -15 16 4 12 7
13 14 3 4 -8 11 -10 15 -6 4 3 2 13 -4 20 -7 8 -9 17 -6 20 4 3 15 -4 25 -16
17 -21 18 -21 19 -3 0 11 3 17 6 13 3 -3 3 -19 -1 -36 -5 -22 -13 -31 -28 -32
-17 -1 -18 -2 -4 -6 21 -6 21 -7 -3 -72 -55 -142 -207 -373 -369 -556 -185
-210 -289 -307 -486 -458 -55 -43 -105 -81 -111 -86 -6 -5 -25 -16 -41 -25
-17 -8 -37 -21 -45 -28 -51 -49 -501 -285 -648 -340 -19 -7 -38 -12 -42 -10
-5 1 -8 -3 -8 -8 0 -6 -7 -10 -15 -10 -9 0 -34 -9 -55 -19 -26 -13 -40 -15
-40 -8 0 7 -4 7 -9 -2 -5 -8 -16 -11 -24 -8 -9 3 -18 0 -20 -7 -3 -8 -22 -17
-42 -20 -20 -4 -42 -9 -50 -12 -7 -3 -15 3 -18 13 -4 16 -5 16 -6 -2 -1 -16
-13 -23 -53 -34 -29 -7 -61 -14 -70 -14 -10 -1 -18 -5 -18 -10 0 -5 -7 -7 -15
-3 -8 3 -15 2 -15 -2 0 -8 -32 -14 -87 -16 -18 0 -33 -5 -33 -10 0 -4 -7 -6
-15 -2 -8 3 -15 1 -15 -5 0 -6 -4 -8 -8 -5 -4 3 -28 0 -52 -5 -33 -8 -45 -7
-51 3 -7 10 -9 10 -9 -2 0 -11 -12 -15 -48 -16 -50 -1 -95 -9 -112 -19 -5 -3
-11 2 -11 12 -1 16 -2 16 -6 1 -3 -12 -20 -18 -67 -23 -34 -4 -71 -5 -82 -4
-10 2 -25 0 -33 -5 -11 -7 -13 -4 -8 15 5 21 4 22 -7 7 -15 -20 -96 -33 -96
-15 0 8 -3 8 -8 2 -11 -16 -42 -14 -42 2 0 12 -3 13 -13 4 -22 -17 -116 -18
-127 -1 -6 8 -10 10 -10 5 0 -10 -37 -11 -122 -6 -9 1 -19 9 -21 19 -3 12 -5
11 -6 -6 -1 -18 -4 -21 -18 -14 -10 5 -24 7 -32 4 -8 -3 -11 0 -7 7 4 6 2 11
-3 11 -6 0 -11 -4 -11 -9 0 -5 -11 -8 -25 -8 -14 0 -25 3 -25 8 0 5 -7 6 -15
3 -10 -4 -15 0 -15 12 0 17 -1 16 -15 -2 -9 -12 -14 -14 -15 -6 0 7 -5 10 -11
6 -6 -3 -15 0 -20 7 -5 8 -9 9 -9 3 0 -7 -11 -9 -26 -6 -17 3 -22 7 -13 12 7
5 -4 8 -24 7 -21 0 -37 -6 -37 -11 0 -6 -4 -4 -9 4 -6 8 -7 18 -4 24 3 5 1 6
-6 2 -6 -4 -9 -12 -6 -17 4 -5 -1 -9 -10 -9 -9 0 -13 5 -10 11 4 6 1 9 -6 8
-17 -3 -100 11 -114 19 -5 4 -16 7 -24 9 -8 1 -18 8 -22 15 -7 10 -9 10 -9 1
0 -7 -5 -13 -11 -13 -5 0 -7 5 -4 10 4 7 -2 9 -19 4 -21 -5 -26 -2 -27 12 0
11 -3 14 -6 7 -2 -7 -9 -13 -15 -13 -6 0 -7 8 -4 17 6 14 3 14 -15 -3 -20 -17
-22 -17 -16 -1 7 20 -3 22 -22 5 -11 -11 -13 -10 -8 5 6 17 -8 25 -15 8 -1 -5
-26 -1 -54 8 -36 11 -50 20 -47 31 4 12 3 12 -5 1 -8 -11 -16 -11 -48 0 -38
14 -67 33 -59 40 2 2 -17 4 -41 4 -29 0 -48 5 -54 15 -5 8 -10 11 -10 6 0 -5
-6 -3 -13 3 -8 6 -22 12 -33 14 -10 2 -29 9 -41 15 -13 7 -23 10 -23 7 0 -3
-6 0 -14 7 -8 7 -12 16 -9 21 2 4 -7 7 -20 7 -13 0 -27 3 -31 7 -6 7 -24 11
-57 15 -9 1 -15 8 -12 15 3 7 -2 13 -12 13 -9 0 -13 4 -10 10 4 6 -1 7 -11 3
-10 -3 -15 -2 -12 3 4 5 -8 9 -25 8 -21 -1 -40 7 -56 22 -13 13 -35 24 -50 25
-14 0 -20 3 -13 6 21 8 13 23 -13 23 -30 0 -85 26 -85 40 0 6 -3 9 -7 8 -15
-3 -43 14 -37 23 3 5 -1 10 -8 11 -7 0 -17 2 -23 2 -23 4 -94 59 -88 70 3 6 3
8 -2 4 -19 -17 -179 96 -370 262 -303 263 -613 691 -648 895 -3 17 -10 46 -16
65 -16 51 -14 68 3 44 14 -18 15 -18 13 4 -1 12 -5 22 -9 22 -4 0 -8 7 -8 15
0 8 5 15 12 15 6 0 8 -3 5 -7z m860 -35 c-3 -7 -5 -2 -5 12 0 14 2 19 5 13 2
-7 2 -19 0 -25z m720 10 c-3 -8 -6 -5 -6 6 -1 11 2 17 5 13 3 -3 4 -12 1 -19z
m4483 6 c0 -8 -5 -12 -10 -9 -6 4 -8 11 -5 16 9 14 15 11 15 -7z m-5252 -19
c-3 -3 -9 2 -12 12 -6 14 -5 15 5 6 7 -7 10 -15 7 -18z m2363 2 c-10 -9 -11
-8 -5 6 3 10 9 15 12 12 3 -3 0 -11 -7 -18z m-105 -5 c1 -7 0 -8 -3 -2 -3 8
-9 7 -19 -1 -8 -6 -14 -7 -14 -2 0 24 31 28 36 5z m1818 -4 c-1 -13 -3 -48 -5
-78 l-2 -55 -6 60 c-6 63 -3 95 8 95 4 0 7 -10 5 -22z m-3504 -3 c0 -8 -7 -15
-16 -15 -14 0 -14 3 -4 15 7 8 14 15 16 15 2 0 4 -7 4 -15z m3287 -32 c-3 -10
-5 -4 -5 12 0 17 2 24 5 18 2 -7 2 -21 0 -30z m-3648 18 c10 -6 11 -20 6 -50
-5 -33 -13 -44 -33 -52 -15 -6 -35 -18 -45 -26 -9 -9 -20 -13 -23 -10 -4 3 -9
38 -12 77 l-5 70 49 0 c27 0 55 -4 63 -9z m813 -86 c2 -47 7 -70 16 -71 6 -1
17 -2 22 -3 6 0 9 -16 9 -33 -1 -24 -3 -27 -6 -10 -3 15 -11 22 -29 22 -24 0
-24 1 -23 98 1 107 7 106 11 -3z m78 85 c0 -5 -5 -10 -11 -10 -5 0 -7 5 -4 10
3 6 8 10 11 10 2 0 4 -4 4 -10z m60 6 c0 -9 -40 -13 -46 -5 -3 5 6 9 20 9 14
0 26 -2 26 -4z m145 -6 c18 -8 17 -9 -7 -9 -16 -1 -28 4 -28 9 0 12 8 12 35 0z
m586 -32 c-13 -11 -33 -42 -44 -67 -23 -52 -48 -152 -41 -163 3 -5 -1 -8 -9
-8 -20 0 -5 85 26 154 23 51 77 119 86 110 3 -2 -6 -14 -18 -26z m1337 22
l412 0 0 -25 0 -25 -464 0 c-255 0 -471 -3 -479 -6 -10 -3 -16 4 -20 23 -3 15
-3 32 0 37 3 5 36 6 72 2 36 -3 252 -6 479 -6z m-2001 -37 c-3 -10 -5 -4 -5
12 0 17 2 24 5 18 2 -7 2 -21 0 -30z m2740 5 c-3 -8 -6 -5 -6 6 -1 11 2 17 5
13 3 -3 4 -12 1 -19z m-3674 -3 c-3 -9 -8 -14 -10 -11 -3 3 -2 9 2 15 9 16 15
13 8 -4z m1124 -107 c-2 -24 -4 -5 -4 42 0 47 2 66 4 43 2 -24 2 -62 0 -85z
m701 101 c9 -13 9 -16 -3 -16 -8 0 -15 9 -15 20 0 11 1 18 3 16 1 -2 8 -11 15
-20z m-960 -73 c4 -55 4 -56 -22 -56 -25 0 -26 2 -26 63 0 35 3 67 7 71 15 15
37 -26 41 -78z m165 26 c11 -67 5 -82 -31 -82 l-29 0 4 58 c6 74 9 84 30 80
13 -2 20 -18 26 -56z m828 25 c-10 -9 -11 -8 -5 6 3 10 9 15 12 12 3 -3 0 -11
-7 -18z m-936 -145 c-10 -10 -11 3 -5 78 l5 75 3 -74 c2 -40 0 -76 -3 -79z
m282 101 c-3 -10 -5 -2 -5 17 0 19 2 27 5 18 2 -10 2 -26 0 -35z m2363 -78 l0
-125 -32 1 c-31 2 -31 2 -5 6 23 4 27 9 27 35 0 21 -6 31 -20 35 -11 3 -20 9
-20 14 0 5 9 9 20 9 16 0 20 7 20 35 0 31 -3 35 -25 35 -14 0 -25 5 -25 10 0
6 11 10 25 10 21 0 25 5 25 30 0 17 2 30 5 30 3 0 5 -56 5 -125z m-3407 88
c-7 -2 -19 -2 -25 0 -7 3 -2 5 12 5 14 0 19 -2 13 -5z m3139 -30 c-2 -10 -6
-20 -9 -23 -8 -8 -853 -11 -853 -2 0 4 -3 18 -7 31 l-6 24 439 -6 c413 -6 439
-8 436 -24z m-4618 1 c3 -8 2 -12 -4 -9 -6 3 -10 10 -10 16 0 14 7 11 14 -7z
m89 -14 c3 -11 1 -18 -4 -14 -5 3 -9 12 -9 20 0 20 7 17 13 -6z m4678 -38 c-9
-25 -9 -24 -10 18 0 36 2 41 10 27 7 -12 7 -27 0 -45z m354 48 c3 -5 -1 -10
-9 -10 -9 0 -19 0 -23 -1 -4 0 -9 4 -11 10 -5 14 35 14 43 1z m102 -6 c-3 -3
-12 -4 -19 -1 -8 3 -5 6 6 6 11 1 17 -2 13 -5z m-3227 -19 c0 -13 -51 -15
-395 -15 -344 0 -395 2 -395 15 0 13 51 15 395 15 344 0 395 -2 395 -15z
m3155 -30 c0 -14 -3 -25 -7 -25 -10 0 -10 34 -1 43 3 4 7 7 7 7 1 0 1 -11 1
-25z m-5057 -10 c-3 -3 -9 2 -12 12 -6 14 -5 15 5 6 7 -7 10 -15 7 -18z m1082
-2 c0 -26 -1 -26 -15 -7 -19 25 -19 34 0 34 10 0 15 -10 15 -27z m3920 12 c0
-8 -4 -15 -10 -15 -5 0 -10 7 -10 15 0 8 5 15 10 15 6 0 10 -7 10 -15z m-2490
-11 c0 -2 -7 -4 -15 -4 -8 0 -15 4 -15 10 0 5 7 7 15 4 8 -4 15 -8 15 -10z
m2697 -6 c-3 -8 -6 -5 -6 6 -1 11 2 17 5 13 3 -3 4 -12 1 -19z m-2789 -5 c-15
-2 -42 -2 -60 0 -18 2 -6 4 27 4 33 0 48 -2 33 -4z m1302 -37 c0 -17 -3 -61
-7 -98 -5 -64 -7 -68 -30 -68 -24 0 -25 1 -22 78 4 99 14 131 40 125 14 -4 19
-14 19 -37z m120 -61 c0 -58 -4 -105 -9 -105 -5 0 -7 8 -4 19 3 10 0 22 -6 25
-7 5 -11 -3 -11 -18 0 -21 -5 -26 -25 -26 -28 0 -29 4 -30 122 l0 68 32 0 c17
0 34 -6 36 -12 3 -7 6 -3 6 10 1 12 3 22 6 22 3 0 5 -47 5 -105z m664 53 c13
-133 13 -158 -1 -158 -20 0 -30 35 -35 128 -4 73 -3 82 13 82 14 0 19 -11 23
-52z m-469 -60 l0 -103 -42 4 -43 3 0 99 0 99 43 0 43 0 -1 -102z m184 2 l1
-100 -40 0 -40 0 0 94 0 95 33 4 c17 2 35 5 38 5 4 1 8 -43 8 -98z m788 77
c-6 -20 -27 -19 -27 2 0 14 5 19 15 14 9 -3 14 -10 12 -16z m-583 -48 c13
-131 8 -146 -44 -134 l-30 7 0 94 0 94 34 0 33 0 7 -61z m253 14 c-3 -10 -5
-2 -5 17 0 19 2 27 5 18 2 -10 2 -26 0 -35z m-2814 10 c3 -16 6 -155 7 -310
l1 -282 -41 16 -41 17 3 268 3 268 -52 0 c-47 0 -71 -12 -42 -22 5 -2 10 -22
11 -46 0 -39 2 -42 29 -42 15 0 30 -4 33 -9 7 -10 -17 -21 -45 -21 -18 0 -20
-6 -17 -52 3 -52 4 -53 36 -56 35 -4 40 -26 6 -28 -10 -1 -25 -2 -31 -3 -9 -1
-13 -19 -13 -56 0 -54 0 -55 30 -55 35 0 40 -15 9 -23 -19 -5 -21 -11 -15 -46
4 -25 2 -41 -4 -41 -5 0 -10 4 -10 9 0 5 -14 14 -30 21 -17 7 -36 20 -43 30
-7 9 -27 22 -45 28 -18 6 -39 17 -46 24 -8 7 -28 24 -45 38 -17 14 -31 34 -31
45 0 12 -11 25 -25 32 -14 6 -25 7 -25 2 0 -19 -26 -8 -62 28 -31 30 -38 44
-38 75 l0 38 -43 0 c-59 0 -77 16 -85 75 -6 44 -10 49 -40 57 -22 6 -32 14
-32 28 0 20 8 20 364 20 l364 0 5 -27z m-1830 -21 c4 -21 3 -31 -3 -27 -6 3
-10 20 -10 37 0 38 5 34 13 -10z m2070 15 c4 -10 -8 -14 -46 -15 -38 -2 -48 0
-37 8 11 7 2 10 -35 10 -36 0 -46 -3 -35 -10 12 -8 11 -10 -6 -10 -12 0 -24 7
-28 15 -4 13 9 15 88 15 69 0 95 -4 99 -13z m459 1 c-7 -7 -62 -12 -154 -14
-87 -2 -129 1 -108 5 34 8 33 8 -15 10 -36 0 -46 -2 -35 -9 10 -7 -8 -9 -60
-8 -70 1 -72 2 -25 8 49 6 49 6 15 11 -19 3 62 7 179 7 163 2 212 -1 203 -10z
m2434 -65 c-2 -3 -9 -2 -15 1 -6 4 -6 17 2 39 l12 32 3 -33 c2 -19 1 -36 -2
-39z m144 58 c0 -6 -4 -13 -10 -16 -5 -3 -10 1 -10 9 0 9 5 16 10 16 6 0 10
-4 10 -9z m-5132 -26 c-3 -3 -9 2 -12 12 -6 14 -5 15 5 6 7 -7 10 -15 7 -18z
m6272 15 c0 -5 -7 -10 -15 -10 -8 0 -15 5 -15 10 0 6 7 10 15 10 8 0 15 -4 15
-10z m-1233 -67 c-3 -10 -5 -2 -5 17 0 19 2 27 5 18 2 -10 2 -26 0 -35z m1213
37 c0 -5 -5 -10 -11 -10 -5 0 -7 5 -4 10 3 6 8 10 11 10 2 0 4 -4 4 -10z
m-2720 -7 c0 -5 -71 -8 -157 -7 -87 0 -135 -1 -108 -3 67 -5 82 -10 67 -25
-18 -18 -54 -18 -47 0 4 12 3 13 -10 2 -11 -9 -12 -16 -5 -25 14 -17 -10 -22
-70 -15 -25 3 -134 6 -243 5 -108 0 -197 3 -197 8 0 16 -18 5 -28 -18 -18 -40
-30 -29 -34 30 l-3 55 418 0 c229 0 417 -3 417 -7z m-3428 -88 c5 -11 -2 -6
-16 10 -49 57 -26 12 39 -76 36 -49 63 -89 60 -89 -6 0 -121 155 -136 183 -8
14 -8 18 0 13 15 -10 14 4 -1 24 -7 9 0 2 15 -14 16 -17 33 -40 39 -51z m1655
63 c-3 -8 -6 -5 -6 6 -1 11 2 17 5 13 3 -3 4 -12 1 -19z m2940 0 c-3 -8 -6 -5
-6 6 -1 11 2 17 5 13 3 -3 4 -12 1 -19z m-2182 -11 c0 -13 -23 -13 -402 -9
-179 2 -203 4 -203 18 0 15 28 16 303 10 231 -5 302 -9 302 -19z m852 8 c0 -8
-4 -15 -9 -15 -10 0 -11 14 -1 23 9 10 10 9 10 -8z m33 5 c0 -5 -2 -10 -4 -10
-3 0 -8 5 -11 10 -3 6 -1 10 4 10 6 0 11 -4 11 -10z m2818 -15 c-6 -14 -17
-25 -25 -25 -11 0 -10 6 4 25 23 32 36 32 21 0z m-1538 0 c0 -8 -4 -15 -10
-15 -5 0 -7 7 -4 15 4 8 8 15 10 15 2 0 4 -7 4 -15z m317 -37 c-3 -8 -6 -5 -6
6 -1 11 2 17 5 13 3 -3 4 -12 1 -19z m1183 -2 c0 -2 -8 -10 -17 -17 -16 -13
-17 -12 -4 4 13 16 21 21 21 13z m-3949 -26 l279 0 0 -150 c0 -82 -3 -150 -7
-150 -5 0 -18 -3 -30 -6 -23 -6 -23 -5 -23 99 0 58 -5 117 -11 131 -16 35 -59
44 -81 16 -16 -20 -17 -36 -12 -131 l7 -109 -171 0 -172 0 0 48 c0 86 -13 212
-21 212 -5 0 -9 -99 -9 -221 l0 -221 -27 7 c-15 3 -31 11 -34 17 -9 14 -12
445 -3 459 3 6 13 8 21 5 8 -3 140 -6 294 -6z m2376 -22 c-3 -7 -5 -2 -5 12 0
14 2 19 5 13 2 -7 2 -19 0 -25z m151 -4 c14 -4 22 -13 21 -28 -1 -17 -2 -17
-6 -3 -3 10 -14 17 -29 17 -13 0 -24 5 -24 10 0 11 6 12 38 4z m-1958 -25 c0
-8 -14 -10 -40 -6 -31 4 -40 2 -40 -10 0 -8 -4 -11 -10 -8 -5 3 -10 13 -10 21
0 10 13 14 50 14 31 0 50 -4 50 -11z m1740 -3 c0 -8 -5 -18 -12 -22 -7 -4
-209 -8 -450 -8 l-438 -1 0 23 0 22 450 0 c385 0 450 -2 450 -14z m-1520 -28
c0 -19 -2 -20 -10 -8 -13 19 -13 30 0 30 6 0 10 -10 10 -22z m227 -10 c-3 -8
-6 -5 -6 6 -1 11 2 17 5 13 3 -3 4 -12 1 -19z m1450 -50 c-2 -13 -4 -3 -4 22
0 25 2 35 4 23 2 -13 2 -33 0 -45z m-4443 -40 c31 -38 54 -68 51 -68 -4 0 -18
14 -32 30 -13 17 -29 28 -33 25 -5 -3 -12 0 -16 6 -4 8 -3 9 4 5 21 -13 13 5
-25 52 -51 65 -18 32 51 -50z m2164 -21 c2 -91 0 -107 -13 -107 -13 0 -15 18
-15 111 0 84 3 110 13 107 8 -3 13 -37 15 -111z m2362 71 c0 -11 -47 -10 -55
1 -3 5 8 9 25 9 16 -1 30 -5 30 -10z m-248 -14 c-9 -15 -48 -17 -431 -15 -342
2 -421 0 -422 -11 0 -12 -17 18 -18 35 -1 4 197 7 439 7 407 0 440 -1 432 -16z
m-902 -38 c0 -27 -21 -36 -87 -36 -24 0 -43 -3 -43 -7 0 -5 24 -8 53 -8 l52 0
3 -55 c3 -42 -1 -57 -14 -67 -12 -9 -14 -16 -6 -25 16 -20 16 -22 3 -45 -7
-14 -8 -23 -2 -23 7 0 7 -9 1 -26 -6 -14 -10 -51 -10 -83 0 -32 -3 -79 -6
-105 -6 -39 -10 -46 -30 -46 l-23 0 -3 213 -3 214 -28 36 c-25 34 -32 37 -76
37 -39 0 -53 -5 -76 -27 -37 -38 -46 -66 -44 -135 l2 -58 60 0 59 0 -4 55 c-3
30 -1 55 4 55 4 0 8 -25 8 -56 l0 -57 33 6 c31 5 68 -6 57 -16 -8 -8 -82 -16
-147 -17 l-63 0 0 -47 0 -48 92 3 c51 2 90 1 87 -3 -4 -3 -41 -6 -83 -6 l-76
0 0 -87 0 -87 -51 -3 -50 -3 3 141 3 140 -97 0 c-81 0 -98 3 -98 15 0 12 17
15 90 15 53 0 90 -4 90 -10 0 -5 3 -10 8 -10 4 0 5 33 2 72 -5 70 -24 122 -52
145 -15 13 -248 22 -248 11 0 -7 89 -13 133 -10 19 2 18 -3 -16 -49 -18 -25
-19 -41 -14 -238 2 -116 2 -213 -2 -215 -3 -1 -25 -1 -48 2 l-43 4 0 89 c0 53
4 89 10 89 6 0 10 20 10 45 l0 45 -110 0 -110 0 6 -125 c5 -92 4 -125 -4 -125
-7 0 -13 8 -13 18 -1 16 -2 16 -6 -1 -3 -13 -11 -16 -31 -11 -15 4 -28 7 -29
8 -1 1 -3 103 -5 228 l-3 227 35 7 35 7 -44 8 c-44 8 -61 21 -61 47 0 9 109
12 510 12 l510 0 0 -24z m2410 -1 c-7 -9 -15 -13 -18 -10 -3 2 1 11 8 20 7 9
15 13 18 10 3 -2 -1 -11 -8 -20z m-34 -27 c4 -7 3 -8 -4 -4 -7 4 -12 2 -12 -5
0 -7 -3 -10 -6 -6 -6 5 3 27 11 27 2 0 7 -5 11 -12z m-5745 -15 c13 -16 12
-17 -3 -4 -17 13 -22 21 -14 21 2 0 10 -8 17 -17z m3447 -219 c2 -215 2 -222
-18 -227 -11 -3 -22 -2 -24 2 -9 14 -19 358 -12 405 6 41 10 47 29 44 22 -3
22 -5 25 -224z m150 192 c3 -13 -7 -16 -52 -16 -48 0 -56 3 -56 19 0 16 7 18
53 15 38 -2 53 -7 55 -18z m170 18 c40 -11 23 -24 -33 -24 -51 0 -65 7 -48 23
8 9 50 9 81 1z m195 -14 c16 -14 -14 -22 -59 -15 -43 6 -56 18 -31 29 15 6 79
-3 90 -14z m197 -4 c0 -7 -20 -11 -55 -11 -67 0 -77 22 -12 27 50 4 67 0 67
-16z m1560 -1 c-7 -9 -15 -13 -17 -11 -7 7 7 26 19 26 6 0 6 -6 -2 -15z
m-2516 -26 c33 -39 34 -61 1 -25 -38 41 -109 28 -128 -24 -4 -12 -6 -12 -6 2
-2 29 48 78 79 78 19 0 36 -10 54 -31z m-3084 -94 c0 -10 -9 -1 -69 76 -28 36
-25 34 18 -11 28 -30 51 -59 51 -65z m2764 96 c16 -18 16 -19 -26 -23 -24 -3
-44 -4 -46 -2 -5 3 40 44 48 44 4 0 15 -9 24 -19z m1459 -1 c3 -10 -1 -27 -9
-37 -12 -16 -13 -14 -14 20 0 39 14 50 23 17z m-775 -22 c13 -11 15 -86 3
-128 -5 -19 -16 -26 -44 -31 l-37 -6 0 92 0 92 33 -5 c17 -2 38 -9 45 -14z
m195 -84 c1 -76 -1 -97 -9 -86 -8 11 -20 13 -42 9 l-32 -6 0 95 0 95 40 -3 41
-3 2 -101z m1900 95 c-6 -6 -9 -19 -6 -28 3 -10 2 -12 -4 -5 -9 14 -28 -2 -28
-23 0 -7 -3 -13 -7 -13 -5 0 -13 0 -20 0 -7 0 6 18 27 40 21 22 41 40 44 40 3
0 0 -5 -6 -11z m-1713 -88 l0 -89 -36 -7 c-49 -9 -54 1 -54 103 l0 82 45 0 45
0 0 -89z m192 22 c-4 -87 -5 -89 -41 -101 l-31 -11 0 74 c0 40 -3 80 -6 89 -5
13 2 16 38 16 l44 0 -4 -67z m77 50 c0 -10 -4 -36 -8 -58 l-9 -40 -1 35 c-1
19 -4 45 -7 58 -5 16 -2 22 10 22 9 0 16 -8 15 -17z m-1993 -34 c17 -18 19
-41 22 -170 l4 -149 -26 0 -25 0 -3 170 c-2 94 0 170 3 170 3 0 14 -9 25 -21z
m-2095 -6 c13 -16 12 -17 -3 -4 -10 7 -18 15 -18 17 0 8 8 3 21 -13z m2700
-12 c7 11 9 9 9 -8 0 -16 -4 -21 -15 -17 -8 4 -14 16 -14 28 1 19 2 19 6 2 4
-15 7 -16 14 -5z m59 -2 c0 -18 -2 -19 -15 -9 -15 12 -12 30 6 30 5 0 9 -10 9
-21z m177 -36 c-3 -10 -5 -2 -5 17 0 19 2 27 5 18 2 -10 2 -26 0 -35z m159
-11 c-12 -12 -18 8 -10 35 l8 28 4 -28 c2 -16 1 -31 -2 -35z m-1454 8 c2 -18
10 -26 28 -27 l25 -3 -22 12 c-13 6 -23 19 -23 30 0 17 11 18 155 18 l155 0 0
-121 0 -120 -27 3 c-19 2 -29 9 -30 23 -1 11 -5 55 -8 98 -6 73 -9 79 -33 88
-14 6 -36 8 -48 5 -19 -5 -23 -15 -29 -84 l-7 -79 -44 10 c-27 6 -44 16 -44
25 0 10 8 13 25 10 15 -3 22 -1 18 5 -4 6 2 8 16 4 18 -4 20 -3 10 9 -8 9 -32
14 -74 14 -60 0 -63 1 -68 27 -6 35 3 97 14 86 4 -4 9 -19 11 -33z m-1589 -13
c6 4 7 1 2 -6 -5 -8 10 -32 41 -64 27 -29 16 -21 -24 18 -39 38 -72 73 -72 78
0 4 10 -1 22 -12 11 -11 26 -18 31 -14z m1977 -97 c0 -109 -2 -130 -15 -130
-13 0 -15 21 -15 130 0 109 2 130 15 130 13 0 15 -21 15 -130z m1437 -67 c-2
-38 -3 -7 -3 67 0 74 1 105 3 68 2 -38 2 -98 0 -135z m1980 182 c0 -8 -3 -13
-6 -11 -3 1 -14 -5 -23 -16 -10 -10 -13 -18 -7 -18 5 0 7 -5 3 -11 -4 -8 -9
-7 -15 2 -5 9 1 23 18 41 31 33 30 32 30 13z m-1940 -172 c-2 -32 -3 -6 -3 57
0 63 1 89 3 58 2 -32 2 -84 0 -115z m1849 88 c-16 -16 -25 -34 -22 -40 8 -12
-6 -15 -18 -4 -6 6 51 73 63 73 3 0 -8 -13 -23 -29z m-1939 -58 c-2 -16 -4 -5
-4 22 0 28 2 40 4 28 2 -13 2 -35 0 -50z m-3266 30 c13 -16 12 -17 -3 -4 -10
7 -18 15 -18 17 0 8 8 3 21 -13z m3486 -55 c-2 -13 -4 -3 -4 22 0 25 2 35 4
23 2 -13 2 -33 0 -45z m133 52 c0 12 2 12 8 2 5 -7 17 -10 28 -7 10 3 6 -1
-11 -9 -42 -21 -54 -20 -48 5 4 16 8 17 14 7 7 -10 9 -10 9 2z m-164 -78 c-12
-11 -15 5 -8 44 l7 39 3 -39 c2 -21 1 -41 -2 -44z m-3435 31 c13 -16 12 -17
-3 -4 -10 7 -18 15 -18 17 0 8 8 3 21 -13z m5115 5 c-1 -7 -6 -15 -11 -16 -20
-7 -35 -25 -28 -35 4 -6 0 -8 -8 -5 -14 5 -42 -15 -33 -25 8 -8 -25 -29 -36
-22 -14 9 -1 28 16 21 8 -3 11 0 7 10 -3 7 -1 14 3 14 5 0 27 16 48 35 45 40
45 40 42 23z m-2770 -14 c-3 -9 -6 -44 -6 -79 0 -55 -2 -63 -17 -60 -10 2 -38
4 -63 5 -40 1 -43 2 -27 14 12 10 17 27 17 65 0 47 -2 51 -24 51 -14 0 -28 5
-31 10 -4 6 24 10 75 10 71 0 81 -2 76 -16z m290 0 c-3 -9 -6 -42 -6 -75 l0
-59 -70 0 c-45 0 -70 4 -70 11 0 7 10 9 25 5 24 -6 25 -5 27 51 l2 58 3 -57 4
-58 34 0 35 0 0 65 0 64 -72 4 -73 3 84 2 c72 2 82 0 77 -14z m-2565 -21 c13
-16 12 -17 -3 -4 -17 13 -22 21 -14 21 2 0 10 -8 17 -17z m3176 -5 c-3 -8 -6
-5 -6 6 -1 11 2 17 5 13 3 -3 4 -12 1 -19z m-398 -65 c1 -32 3 -33 44 -34 40
-1 40 -1 11 -8 -17 -4 -51 -5 -75 -1 -26 5 -33 8 -18 9 25 1 26 3 23 59 -3 42
-1 50 5 32 5 -14 9 -40 10 -57z m404 32 c4 -8 2 -17 -3 -20 -6 -4 -10 3 -10
14 0 25 6 27 13 6z m-3108 -55 c10 -11 16 -20 13 -20 -3 0 -13 9 -23 20 -10
11 -16 20 -13 20 3 0 13 -9 23 -20z m93 -43 c42 -35 110 -84 150 -110 39 -26
72 -50 72 -52 0 -3 -18 6 -40 20 -46 29 -58 32 -39 8 8 -10 0 -7 -18 7 -18 13
-29 28 -26 33 3 6 1 7 -6 3 -14 -9 -43 12 -35 25 5 9 -11 13 -31 9 -5 -1 -7 2
-2 6 4 4 -3 18 -15 31 -21 23 -45 32 -33 13 3 -6 -1 -7 -10 -3 -12 4 -13 8 -5
13 8 5 0 16 -22 34 -18 14 -29 26 -25 26 4 0 42 -28 85 -63z m4762 54 c0 -10
-30 -24 -37 -17 -3 3 -2 9 2 15 8 13 35 15 35 2z m-60 -45 c0 -8 -6 -16 -14
-19 -12 -5 -14 6 -7 31 3 9 21 -1 21 -12z m-204 -148 c4 -7 4 -10 0 -6 -5 4
-19 -4 -33 -18 -13 -13 -28 -24 -33 -24 -5 0 -21 -11 -36 -25 -18 -16 -34 -23
-46 -19 -12 3 -17 1 -16 -6 2 -7 -3 -15 -11 -18 -9 -3 -11 0 -6 8 5 9 4 11 -4
6 -6 -4 -9 -11 -6 -16 9 -14 -133 -99 -330 -195 -423 -208 -760 -310 -1245
-377 -147 -20 -692 -17 -845 5 -158 23 -344 61 -481 97 -124 33 -408 131 -524
180 -145 62 -395 188 -423 214 -15 14 -27 23 -27 20 0 -6 -111 55 -131 72 -8
8 -20 14 -26 14 -6 0 -17 7 -24 17 -13 15 -12 15 11 3 24 -13 24 -12 10 5 -14
17 -14 18 8 6 13 -7 21 -15 18 -18 -7 -8 13 -33 26 -33 6 0 4 7 -3 17 -9 10 1
7 26 -9 63 -39 429 -221 540 -268 378 -161 775 -259 1170 -291 294 -23 677 -1
970 57 239 47 541 144 775 248 128 57 441 219 533 275 37 22 67 37 67 33 0 -4
4 -2 8 3 9 13 65 54 74 55 4 0 10 -6 14 -12z"/>
<path d="M4028 8607 c-86 -39 -122 -140 -83 -235 39 -91 126 -134 208 -103 38
15 94 76 102 111 18 80 -36 199 -101 226 -40 17 -89 17 -126 1z"/>
<path d="M2972 7995 c-42 -18 -69 -50 -82 -96 -13 -48 2 -93 48 -141 71 -75
170 -87 241 -30 73 59 62 146 -29 222 -73 61 -116 72 -178 45z"/>
<path d="M3808 6583 c6 -2 18 -2 25 0 6 3 1 5 -13 5 -14 0 -19 -2 -12 -5z"/>
<path d="M3978 6583 c12 -2 32 -2 45 0 12 2 2 4 -23 4 -25 0 -35 -2 -22 -4z"/>
<path d="M4988 6583 c6 -2 18 -2 25 0 6 3 1 5 -13 5 -14 0 -19 -2 -12 -5z"/>
<path d="M3492 6482 l-83 -3 3 -82 3 -82 45 -5 c25 -3 87 -4 138 -2 l92 3 0
84 0 83 -57 4 c-32 1 -95 2 -141 0z m106 -59 c-3 -14 -15 -19 -62 -21 -56 -3
-75 5 -76 31 0 4 32 7 71 7 62 0 70 -2 67 -17z m49 -65 c-2 -18 -4 -6 -4 27 0
33 2 48 4 33 2 -15 2 -42 0 -60z m-69 14 c13 -4 23 -11 23 -17 0 -13 -88 -24
-120 -15 -22 5 -23 7 -7 23 18 17 61 21 104 9z"/>
<path d="M5063 6483 c-17 -2 -33 -10 -35 -16 -3 -7 -3 -45 0 -84 l4 -73 103 0
c56 0 117 3 135 6 l32 7 -4 74 c-3 40 -8 76 -11 79 -7 7 -184 13 -224 7z m147
-52 c0 -17 -19 -23 -76 -24 -45 -2 -54 1 -54 15 0 15 10 18 65 18 36 0 65 -4
65 -9z m59 -68 c1 -18 -3 -33 -9 -33 -6 0 -10 25 -9 58 1 43 3 51 9 32 4 -14
8 -40 9 -57z m-74 -3 c0 -10 -13 -17 -40 -20 -51 -7 -65 -2 -65 22 0 17 6 19
53 16 38 -2 52 -7 52 -18z"/>
<path d="M5694 6398 c6 -98 8 -103 28 -96 10 4 12 29 10 97 -3 84 -5 91 -24
91 -20 0 -21 -3 -14 -92z"/>
<path d="M6293 6483 l-63 -4 0 -32 c0 -18 3 -56 6 -84 l7 -53 123 0 124 0 0
90 0 90 -67 -2 c-38 -1 -96 -3 -130 -5z m115 -60 c3 -22 0 -23 -57 -23 -53 0
-61 2 -61 19 0 25 14 30 70 28 38 -2 45 -5 48 -24z m10 -65 c-2 -17 -12 -21
-55 -24 -51 -4 -53 -3 -53 20 0 23 3 25 56 25 50 0 55 -2 52 -21z"/>
<path d="M3760 6395 l0 -85 125 0 c69 0 128 -1 133 -2 4 -2 8 34 10 80 3 94
22 105 22 12 0 -58 14 -85 31 -59 5 8 9 30 9 49 0 49 18 25 22 -30 l3 -45 110
0 110 0 5 70 5 70 8 -62 c12 -98 37 -79 37 28 l0 59 -315 0 -315 0 0 -85z m49
-38 c1 -23 -3 -36 -9 -32 -5 3 -9 34 -9 68 1 50 3 56 9 32 4 -16 8 -47 9 -68z
m171 68 c0 -11 -11 -15 -42 -15 -24 0 -53 -3 -65 -6 -19 -5 -23 -2 -23 15 0
19 5 21 65 21 51 0 65 -3 65 -15z m310 -2 c0 -15 -10 -18 -60 -18 -50 0 -60 3
-60 18 0 14 10 17 60 17 50 0 60 -3 60 -17z m-305 -54 c11 -16 1 -20 -64 -26
-57 -5 -61 -4 -61 16 0 19 5 21 59 21 33 0 63 -5 66 -11z m306 -4 c0 -5 -10
-13 -23 -17 -27 -7 -88 -10 -88 -4 0 2 -2 10 -5 18 -4 10 9 13 55 13 33 0 60
-4 61 -10z"/>
<path d="M4650 6422 c0 -63 4 -74 26 -65 10 4 14 23 14 64 0 52 -2 59 -20 59
-18 0 -20 -7 -20 -58z"/>
<path d="M4700 6464 c0 -8 5 -46 11 -85 l12 -69 132 0 132 0 6 66 c8 110 17
104 -149 104 -124 0 -144 -2 -144 -16z m60 -76 c0 -34 -3 -58 -6 -55 -12 12
-16 117 -4 117 6 0 10 -26 10 -62z m190 38 c0 -11 -18 -15 -70 -18 -61 -3 -70
-1 -70 15 0 14 10 17 70 17 54 0 70 -3 70 -14z m-6 -60 c-3 -8 -15 -17 -27
-20 -25 -7 -97 -8 -97 -2 0 2 -3 11 -6 20 -5 14 4 16 65 16 56 0 69 -3 65 -14z"/>
<path d="M5316 6433 c8 -68 11 -73 39 -73 24 0 25 2 25 60 l0 60 -35 0 -35 0
6 -47z m34 -3 c0 -5 -4 -10 -10 -10 -5 0 -10 5 -10 10 0 6 5 10 10 10 6 0 10
-4 10 -10z"/>
<path d="M5910 6411 c0 -95 7 -101 121 -101 125 0 132 5 124 86 -5 40 -4 64 2
64 6 0 13 -27 16 -59 3 -33 8 -65 12 -70 15 -25 25 5 25 75 l0 74 -150 0 -150
0 0 -69z m184 30 c4 -5 3 -16 0 -25 -5 -12 -20 -16 -60 -16 -30 0 -54 2 -54 4
0 2 -3 11 -6 20 -5 12 5 16 48 19 29 2 56 4 60 5 4 1 9 -2 12 -7z m5 -77 c1
-1 0 -7 -4 -13 -3 -6 -31 -11 -61 -11 -47 0 -54 2 -54 20 0 19 4 20 58 14 31
-4 59 -8 61 -10z"/>
<path d="M6560 6395 c0 -78 2 -85 20 -85 18 0 20 7 21 78 1 71 2 74 11 37 5
-22 8 -57 6 -77 l-4 -38 113 0 113 0 0 85 0 85 -140 0 -140 0 0 -85z m230 27
c0 -14 -11 -17 -65 -17 -55 -1 -65 2 -65 17 0 14 11 18 58 20 67 4 72 2 72
-20z m0 -57 c0 -24 -3 -25 -60 -25 -53 0 -60 2 -60 20 0 16 8 20 58 23 31 2
58 4 60 5 1 1 2 -9 2 -23z"/>
<path d="M6503 6365 c0 -22 2 -30 4 -17 2 12 2 30 0 40 -3 9 -5 -1 -4 -23z"/>
<path d="M5462 6250 c0 -19 2 -27 5 -17 2 9 2 25 0 35 -3 9 -5 1 -5 -18z"/>
<path d="M3163 6126 c-3 -6 -3 -8 2 -4 4 4 13 4 19 -1 7 -6 16 -4 23 4 9 10 6
13 -13 13 -13 0 -27 -6 -31 -12z"/>
<path d="M3238 6133 c7 -3 16 -2 19 1 4 3 -2 6 -13 5 -11 0 -14 -3 -6 -6z"/>
<path d="M3323 6133 c9 -2 23 -2 30 0 6 3 -1 5 -18 5 -16 0 -22 -2 -12 -5z"/>
<path d="M2730 5873 l0 -48 92 1 c101 1 104 3 94 60 l-7 34 -89 0 -90 0 0 -47z"/>
<path d="M4819 5923 c-94 -4 -103 -10 -92 -67 l5 -26 119 0 119 0 0 40 c0 34
-4 42 -26 50 -14 6 -28 9 -32 8 -4 -1 -46 -4 -93 -5z"/>
<path d="M4157 5883 c-4 -21 -3 -41 1 -44 4 -4 50 -9 102 -11 l95 -3 3 48 3
47 -99 0 -99 0 -6 -37z"/>
<path d="M3785 4987 c-102 -34 -178 -97 -227 -189 -20 -37 -23 -57 -23 -148 0
-90 3 -112 24 -152 34 -69 93 -125 169 -161 57 -27 79 -32 142 -32 63 0 85 5
140 32 139 66 201 154 208 297 5 102 -19 173 -84 245 -87 96 -240 144 -349
108z"/>
<path d="M2920 5299 c0 -5 5 -7 10 -4 6 3 10 8 10 11 0 2 -4 4 -10 4 -5 0 -10
-5 -10 -11z"/>
<path d="M6589 3174 c-3 -34 1 -127 5 -132 3 -3 6 14 6 37 0 24 4 40 10 36 5
-3 4 8 -2 27 -12 37 -18 46 -19 32z"/>
<path d="M5112 3380 c-14 -23 -15 -30 -3 -30 8 0 24 41 18 47 -2 1 -8 -7 -15
-17z"/>
<path d="M6871 3114 c0 -11 3 -14 6 -6 3 7 2 16 -1 19 -3 4 -6 -2 -5 -13z"/>
<path d="M6861 3024 c0 -11 3 -14 6 -6 3 7 2 16 -1 19 -3 4 -6 -2 -5 -13z"/>
<path d="M2112 3303 c-9 -9 -11 -24 -7 -40 6 -24 7 -25 25 -8 11 10 17 22 14
27 -3 5 -12 1 -20 -9 -7 -10 -14 -13 -14 -6 0 6 9 18 20 26 15 10 17 16 8 20
-7 2 -19 -2 -26 -10z"/>
<path d="M2163 3245 c4 -9 2 -25 -5 -34 -12 -14 -11 -14 5 -2 20 16 22 37 5
47 -8 5 -9 2 -5 -11z"/>
<path d="M2130 3235 c-7 -9 -8 -15 -2 -15 5 0 12 7 16 15 3 8 4 15 2 15 -2 0
-9 -7 -16 -15z"/>
<path d="M8116 3209 c3 -5 12 -9 21 -9 19 0 9 13 -12 16 -8 1 -13 -2 -9 -7z"/>
<path d="M8115 3170 c3 -5 8 -10 11 -10 2 0 4 5 4 10 0 6 -5 10 -11 10 -5 0
-7 -4 -4 -10z"/>
<path d="M7110 2049 c0 -5 5 -7 10 -4 6 3 10 8 10 11 0 2 -4 4 -10 4 -5 0 -10
-5 -10 -11z"/>
<path d="M7015 2000 c-3 -6 1 -7 9 -4 18 7 21 14 7 14 -6 0 -13 -4 -16 -10z"/>
<path d="M3270 1970 c0 -5 5 -10 10 -10 6 0 10 5 10 10 0 6 -4 10 -10 10 -5 0
-10 -4 -10 -10z"/>
<path d="M4925 1470 c-3 -5 -1 -10 4 -10 6 0 11 5 11 10 0 6 -2 10 -4 10 -3 0
-8 -4 -11 -10z"/>
<path d="M5858 3173 c7 -3 16 -2 19 1 4 3 -2 6 -13 5 -11 0 -14 -3 -6 -6z"/>
<path d="M5918 3173 c7 -3 16 -2 19 1 4 3 -2 6 -13 5 -11 0 -14 -3 -6 -6z"/>
<path d="M6028 3173 c7 -3 16 -2 19 1 4 3 -2 6 -13 5 -11 0 -14 -3 -6 -6z"/>
<path d="M3244 2989 c3 -17 6 -42 6 -56 0 -21 4 -24 33 -21 31 3 32 4 35 56
l3 52 -42 0 c-41 0 -41 0 -35 -31z"/>
<path d="M3380 3004 c0 -8 5 -12 10 -9 6 4 10 -12 10 -39 0 -46 0 -46 35 -46
33 0 35 2 35 33 0 17 3 42 6 55 6 21 3 22 -45 22 -40 0 -51 -4 -51 -16z"/>
<path d="M3544 3004 c3 -9 6 -33 6 -55 0 -39 0 -39 40 -39 l40 0 0 49 c0 39 4
51 18 54 9 3 -12 5 -47 6 -54 1 -62 -1 -57 -15z"/>
<path d="M3400 2827 c0 -30 2 -56 5 -59 3 -3 20 -2 38 1 31 6 32 9 35 59 l3
52 -40 0 -41 0 0 -53z"/>
<path d="M3550 2848 c0 -63 9 -78 46 -78 l34 0 0 55 0 55 -40 0 c-38 0 -40 -1
-40 -32z"/>
<path d="M3560 2690 c0 -33 3 -61 8 -61 55 -9 57 -7 60 59 l3 62 -36 0 -35 0
0 -60z"/>
<path d="M4043 3033 c9 -2 23 -2 30 0 6 3 -1 5 -18 5 -16 0 -22 -2 -12 -5z"/>
<path d="M4408 3033 c7 -3 16 -2 19 1 4 3 -2 6 -13 5 -11 0 -14 -3 -6 -6z"/>
<path d="M5191 2936 c12 -10 59 -15 59 -6 0 5 -14 10 -32 10 -17 0 -29 -2 -27
-4z"/>
<path d="M4196 2824 c-13 -12 -16 -38 -16 -121 l0 -106 46 6 c53 6 59 12 58
59 -1 18 -2 57 -2 86 -3 76 -47 115 -86 76z"/>
<path d="M4030 2660 l0 -49 50 2 50 1 0 48 0 48 -50 0 -50 0 0 -50z"/>
<path d="M4770 2660 c-19 -4 -27 -8 -16 -9 18 -1 18 -2 1 -28 -12 -18 -19 -51
-21 -100 l-2 -73 38 0 c37 0 39 1 43 38 l4 37 1 -37 2 -38 65 0 65 0 0 43 c-1
108 -44 178 -109 176 -20 -1 -52 -5 -71 -9z m114 -51 c23 -18 26 -27 25 -82
l-2 -62 -6 51 c-9 70 -25 88 -73 80 -40 -7 -51 6 -20 23 26 16 47 13 76 -10z"/>
<path d="M5180 2658 c0 -5 17 -9 38 -9 20 -1 50 -2 65 -3 16 -1 30 1 33 5 2 4
-27 9 -66 11 -38 2 -70 0 -70 -4z"/>
<path d="M4712 2240 c0 -19 2 -27 5 -17 2 9 2 25 0 35 -3 9 -5 1 -5 -18z"/>
<path d="M4820 2256 l0 -66 35 0 36 0 -3 63 c-3 62 -3 62 -35 65 l-33 3 0 -65z"/>
<path d="M7055 1880 c-3 -5 -1 -10 4 -10 6 0 11 5 11 10 0 6 -2 10 -4 10 -3 0
-8 -4 -11 -10z"/>
</g>
</svg>
